<?xml version="1.0" standalone="no"?>
<!DOCTYPE svg PUBLIC "-//W3C//DTD SVG 20010904//EN"
 "http://www.w3.org/TR/2001/REC-SVG-20010904/DTD/svg10.dtd">
<svg version="1.0" xmlns="http://www.w3.org/2000/svg"
 width="1024.000000pt" height="1024.000000pt" viewBox="0 0 1024.000000 1024.000000"
 preserveAspectRatio="xMidYMid meet">
<metadata>
Created by potrace 1.14, written by Peter Selinger 2001-2017
</metadata>
<g transform="translate(0.000000,1024.000000) scale(0.100000,-0.100000)"
fill="#000000" stroke="none">
<path d="M0 5120 l0 -5120 5120 0 5120 0 0 5120 0 5120 -5120 0 -5120 0 0
-5120z m2487 4208 l31 -53 -226 -7 c-260 -9 -724 0 -716 13 3 5 0 9 -5 9 -22
0 -10 20 15 26 17 4 22 9 14 14 -14 9 13 26 59 41 14 4 199 8 411 8 l385 1 32
-52z m5827 45 c7 -8 12 -9 54 -11 12 -1 22 -9 22 -17 0 -8 5 -15 10 -15 6 0
10 5 10 10 0 16 17 11 24 -7 4 -9 2 -19 -3 -22 -5 -4 14 -6 43 -5 47 1 53 -1
49 -17 -5 -18 -21 -19 -312 -19 -168 0 -323 3 -343 6 -33 6 -38 10 -38 33 0
39 20 59 60 64 65 7 417 7 424 0z m-6767 -99 c-3 -3 -12 -4 -19 -1 -8 3 -5 6
6 6 11 1 17 -2 13 -5z m6154 -274 c41 -11 101 -68 119 -111 l12 -29 217 -1
c119 0 239 -5 266 -10 28 -5 85 -15 128 -22 43 -7 75 -16 70 -20 -4 -5 0 -5 9
-2 20 8 26 -1 34 -53 6 -41 6 -42 -20 -42 -18 0 -25 4 -20 12 4 7 3 8 -5 4
-15 -9 -116 -9 -431 1 -140 4 -256 5 -258 1 -12 -25 -51 -74 -74 -91 -40 -30
-124 -34 -174 -9 -64 33 -111 94 -128 165 -15 62 32 150 98 184 64 33 101 38
157 23z m-4889 -29 c111 -71 130 -210 40 -304 -40 -42 -75 -57 -134 -57 -68 0
-115 24 -153 78 l-30 43 -385 -5 c-212 -3 -431 -8 -487 -11 -70 -3 -104 -1
-109 7 -4 6 -3 9 2 6 5 -3 27 -2 49 2 28 5 32 8 15 9 l-25 2 25 14 25 14 -32
1 c-18 0 -33 4 -33 9 0 6 15 11 33 13 19 2 31 8 30 16 -2 6 5 12 14 12 9 0 25
8 36 18 17 15 51 17 361 19 187 1 373 2 412 2 l72 1 23 48 c46 92 160 121 251
63z m2633 -81 c274 -19 574 -73 840 -152 333 -99 732 -295 1017 -500 407 -293
637 -528 954 -978 339 -481 558 -1065 646 -1725 32 -242 32 -666 -1 -900 -79
-573 -173 -900 -376 -1306 -96 -192 -266 -456 -402 -627 -316 -395 -846 -813
-1318 -1038 -533 -254 -1214 -387 -1808 -354 -568 32 -999 148 -1527 411 -274
137 -534 309 -779 517 -159 136 -269 247 -394 401 -487 598 -791 1317 -868
2056 -8 69 -13 240 -12 405 0 232 4 314 22 442 43 324 121 644 221 918 143
388 454 896 756 1234 209 234 572 517 897 700 339 191 616 302 987 396 352 89
768 125 1145 100z m3165 -155 c0 -17 -5 -25 -17 -24 -11 0 -13 3 -5 6 6 2 12
13 12 24 0 10 2 19 5 19 3 0 5 -11 5 -25z m-7096 -1 c8 -21 3 -26 -17 -18 -9
3 -13 12 -10 20 7 19 19 18 27 -2z m-357 -60 c-3 -3 -12 -4 -19 -1 -8 3 -5 6
6 6 11 1 17 -2 13 -5z m101 -1 c-15 -2 -42 -2 -60 0 -18 2 -6 4 27 4 33 0 48
-2 33 -4z m820 -388 c111 -47 154 -169 95 -276 -45 -83 -152 -121 -240 -84
-50 21 -72 42 -93 88 l-17 38 -289 0 c-159 -1 -354 -3 -434 -6 -138 -4 -142
-4 -90 9 30 8 50 14 44 15 -19 2 -23 25 -7 40 13 12 14 11 8 -10 -5 -18 -4
-20 4 -9 6 8 8 24 5 36 -4 17 0 23 23 28 15 3 189 9 386 13 l358 6 13 31 c35
82 142 119 234 81z m6355 1 c38 -16 72 -51 86 -88 l11 -28 182 -1 c391 -3 542
-8 508 -18 -24 -7 -24 -8 -6 -18 13 -7 17 -16 12 -29 -4 -11 -8 -21 -8 -24 -7
-28 -34 -31 -352 -30 l-324 0 -10 -28 c-22 -60 -103 -111 -177 -112 -53 0
-121 35 -159 83 -55 70 -45 199 20 259 53 48 149 63 217 34z m-7540 -563 c106
-102 311 -273 325 -273 5 0 18 13 30 29 46 63 159 89 240 55 74 -31 132 -111
132 -184 0 -105 -108 -209 -218 -210 -83 0 -176 75 -188 151 -5 31 -11 38 -36
43 -18 3 -71 43 -136 102 -285 257 -320 290 -321 302 -1 6 -11 12 -23 12 -21
0 -21 0 -2 14 14 11 21 11 26 3 5 -7 8 -3 8 11 0 20 24 39 52 41 4 1 54 -43
111 -96z m8596 -12 c13 -10 33 -16 45 -13 12 2 -62 -77 -164 -176 -160 -156
-190 -181 -220 -184 -34 -3 -35 -5 -42 -52 -8 -59 -31 -93 -84 -123 -128 -73
-303 33 -304 185 0 80 68 169 147 191 49 14 50 14 114 -5 38 -12 65 -28 91
-56 l37 -41 113 100 c131 115 227 193 236 193 4 0 18 -9 31 -19z m-8759 -15
c0 -16 -70 -31 -111 -23 -15 3 -8 5 19 6 40 1 56 14 30 24 -7 3 4 6 25 6 26 1
37 -3 37 -13z m-117 -431 c21 -22 66 -74 100 -115 34 -41 99 -113 144 -160
l82 -84 48 17 c54 19 124 22 154 6 11 -6 34 -31 50 -57 52 -83 35 -177 -43
-235 -41 -31 -133 -34 -176 -8 -37 24 -68 69 -82 122 -7 24 -35 59 -92 115
-141 135 -223 209 -226 204 -4 -9 -40 57 -46 87 -5 23 -4 31 6 29 26 -3 19 17
-26 69 -36 42 -42 54 -30 59 9 3 20 4 25 0 5 -3 17 -1 26 5 21 11 30 5 86 -54z
m9261 -29 c-5 -14 -9 -14 -22 -4 -10 8 -13 9 -9 1 5 -7 0 -9 -13 -6 -24 6 -16
23 11 23 10 0 19 5 19 12 0 8 3 9 10 2 6 -6 8 -18 4 -28z m-208 -136 c8 0 14
-5 14 -11 0 -7 -10 -9 -25 -7 -17 4 -25 1 -25 -8 0 -8 -1 -17 -2 -21 -2 -3 8
-8 21 -10 16 -2 34 5 50 21 27 26 71 27 71 2 0 -13 -112 -126 -125 -126 -4 0
-13 -7 -19 -14 -6 -8 -17 -16 -25 -18 -22 -5 -51 -30 -45 -40 3 -4 -1 -8 -9
-8 -16 0 -43 -73 -32 -89 3 -6 -3 -31 -15 -55 -60 -125 -232 -136 -297 -20
-27 46 -30 121 -8 163 20 40 69 79 115 91 33 9 47 8 82 -8 l43 -18 63 64 c42
44 68 63 80 60 13 -4 18 1 20 20 2 29 20 44 40 37 8 -3 20 -5 28 -5z m-76 -30
c0 -5 -5 -10 -11 -10 -5 0 -7 5 -4 10 3 6 8 10 11 10 2 0 4 -4 4 -10z m-8449
-3453 c54 -29 109 -112 109 -167 0 -52 -38 -120 -80 -142 -43 -22 -101 -23
-142 -2 l-31 16 -71 -76 c-40 -42 -74 -76 -77 -76 -6 0 -1 89 6 119 5 20 8 22
17 10 7 -11 9 -9 5 8 -3 15 5 37 24 63 23 32 27 44 19 60 -24 44 -6 123 36
162 58 52 118 60 185 25z m8238 8 c66 -34 115 -130 93 -181 -16 -34 -15 -59 3
-74 17 -14 21 -35 5 -25 -16 10 -12 -11 5 -25 21 -18 13 -22 -19 -11 -17 7
-26 7 -26 1 0 -6 8 -10 18 -10 16 -1 16 -1 0 -11 -15 -8 -16 -13 -6 -29 7 -10
16 -16 20 -14 4 3 8 -1 8 -9 0 -8 9 -26 21 -41 11 -14 18 -26 15 -26 -3 0 -32
33 -63 73 l-58 74 -43 -15 c-96 -32 -185 27 -206 137 -11 61 42 144 119 184
38 20 78 21 114 2z m-8559 -489 c0 -3 -4 -8 -10 -11 -5 -3 -10 -1 -10 4 0 6 5
11 10 11 6 0 10 -2 10 -4z m-201 -46 c-13 -16 -25 -28 -27 -25 -5 5 37 55 45
55 2 0 -6 -13 -18 -30z m9204 -92 c20 -28 37 -57 37 -64 0 -8 -14 -23 -32 -34
-37 -22 -51 -15 -73 37 -8 19 -19 32 -24 29 -5 -3 -12 1 -15 10 -8 20 39 85
57 78 6 -2 29 -27 50 -56z m-9243 48 c0 -2 -8 -10 -17 -17 -16 -13 -17 -12 -4
4 13 16 21 21 21 13z m889 -96 c91 -26 161 -116 161 -206 0 -90 -51 -157 -142
-190 -55 -19 -75 -18 -134 10 -34 16 -57 35 -72 60 l-22 37 -28 -20 c-15 -10
-88 -76 -162 -146 -164 -154 -232 -212 -224 -191 5 12 0 16 -22 17 -28 0 -28
1 -6 9 24 10 30 30 8 30 -18 0 -29 27 -14 36 7 4 8 3 4 -4 -4 -7 -3 -12 3 -12
5 0 13 9 16 20 3 11 14 20 23 21 12 0 13 2 4 6 -8 3 56 72 169 181 136 132
187 188 201 222 44 103 135 149 237 120z m7529 -6 c50 -20 99 -70 113 -113 18
-53 77 -123 220 -259 71 -68 129 -129 128 -135 0 -8 -2 -8 -6 1 -8 21 -22 13
-38 -24 -10 -24 -19 -33 -27 -28 -7 4 -5 -2 6 -14 10 -12 23 -19 28 -16 4 3 7
0 6 -8 -2 -7 4 -12 12 -10 8 2 12 0 8 -4 -4 -4 6 -20 23 -37 17 -16 27 -28 21
-26 -17 6 -331 301 -358 336 -30 40 -43 41 -75 7 -56 -61 -157 -81 -228 -45
-147 75 -154 273 -12 362 52 34 119 39 179 13z m567 -598 c6 -4 1 -4 -10 2
-11 6 -31 23 -45 39 l-25 28 35 -30 c19 -16 40 -34 45 -39z m39 -35 c15 -17
15 -19 1 -25 -10 -4 -14 -2 -9 6 4 6 -1 17 -11 25 -11 7 -14 13 -8 13 5 0 18
-8 27 -19z m-8774 -35 c0 -2 -7 -9 -15 -16 -13 -11 -14 -10 -9 4 5 14 24 23
24 12z m1270 -105 c64 -38 104 -116 97 -190 -11 -102 -76 -161 -187 -168 -65
-4 -123 23 -155 74 l-20 32 -135 1 c-186 2 -294 9 -298 21 -2 5 -8 6 -14 3 -5
-3 -4 3 4 15 7 12 17 21 22 21 6 0 1 7 -10 16 -10 8 -14 13 -7 10 14 -8 44 3
38 14 -8 14 76 21 229 19 138 -1 151 1 157 18 4 10 13 33 20 51 23 62 108 106
184 94 17 -2 50 -16 75 -31z m6342 8 c41 -21 75 -66 85 -111 5 -28 6 -28 87
-28 76 -1 307 -16 350 -23 11 -2 22 -9 24 -15 2 -6 9 -9 15 -6 7 2 13 -4 14
-16 1 -12 -4 -20 -13 -20 -8 0 -12 5 -9 10 3 6 2 10 -4 10 -16 0 -22 -18 -9
-23 10 -3 10 -7 1 -19 -7 -8 -9 -18 -5 -23 4 -4 -8 -4 -27 0 -25 5 -32 4 -26
-5 6 -10 -3 -11 -36 -7 -24 4 -89 9 -144 12 -55 3 -126 8 -158 11 -57 5 -57 5
-78 -31 -46 -78 -166 -102 -253 -51 -64 37 -96 95 -96 172 1 152 143 234 282
163z m755 -295 c-3 -3 -12 -4 -19 -1 -8 3 -5 6 6 6 11 1 17 -2 13 -5z m-1482
-333 c49 -22 101 -79 110 -121 4 -18 12 -30 18 -27 27 10 508 -10 519 -21 7
-7 27 -12 45 -12 29 0 33 -3 30 -22 -6 -49 -22 -62 -73 -60 -38 1 -45 -1 -29
-9 15 -7 11 -8 -20 -5 -22 3 -143 6 -268 7 l-229 1 -19 -31 c-46 -75 -176 -94
-258 -37 -57 39 -95 120 -88 182 6 60 49 121 106 151 53 28 102 29 156 4z
m-4892 -27 c75 -52 107 -156 74 -237 -29 -67 -121 -127 -197 -127 -42 0 -113
42 -139 82 l-24 37 -323 -2 c-178 -1 -324 -5 -324 -9 0 -5 -11 -8 -25 -8 -14
0 -25 5 -25 11 0 5 -4 8 -8 5 -4 -2 -14 -1 -22 5 -10 6 -11 9 -2 9 6 0 12 5
12 11 0 6 -7 8 -17 5 -11 -5 -9 1 7 17 14 13 30 22 36 20 6 -2 17 3 24 12 7 8
27 15 44 15 31 0 70 17 51 22 -5 1 122 5 284 8 l295 5 7 27 c30 114 172 161
272 92z m-1006 -270 c-3 -3 -12 -4 -19 -1 -8 3 -5 6 6 6 11 1 17 -2 13 -5z
m-119 -11 c-10 -2 -28 -2 -40 0 -13 2 -5 4 17 4 22 1 32 -1 23 -4z m-318 -373
c0 -12 -17 -12 -45 0 -17 7 -15 9 13 9 17 1 32 -3 32 -9z m7714 -65 c38 -36
67 -68 63 -71 -4 -4 -15 0 -24 8 -10 9 -26 14 -35 13 -9 -2 -24 5 -34 16 -9
10 -21 16 -27 12 -6 -4 -8 3 -4 18 5 22 -17 69 -29 61 -2 -2 -10 -1 -17 1 -6
3 -1 6 13 6 17 0 47 -20 94 -64z m-6952 -5 c12 0 19 -3 15 -6 -3 -3 -20 -3
-37 1 -27 6 -29 9 -18 22 12 15 13 15 16 0 2 -10 13 -17 24 -17z m55 -14 c-4
-10 3 -16 21 -19 15 -2 -38 -4 -118 -3 -107 0 -118 1 -43 3 73 3 104 8 113 18
16 19 34 19 27 1z m6082 -22 c2 -2 -92 -3 -210 -2 -131 1 -185 4 -139 7 77 6
342 2 349 -5z"/>
<path d="M8453 9283 c9 -2 25 -2 35 0 9 3 1 5 -18 5 -19 0 -27 -2 -17 -5z"/>
<path d="M7586 8875 c-64 -59 8 -167 94 -140 24 8 50 54 50 90 0 66 -92 99
-144 50z"/>
<path d="M2651 8864 c-25 -32 -26 -43 -6 -89 17 -43 50 -57 98 -44 65 18 86
85 42 133 -35 37 -105 37 -134 0z"/>
<path d="M5030 8663 c-408 -28 -630 -72 -1000 -198 -387 -132 -759 -342 -1120
-630 -252 -201 -434 -407 -642 -725 -271 -413 -414 -729 -518 -1140 -85 -340
-114 -575 -114 -925 1 -364 35 -595 141 -965 142 -498 479 -1083 847 -1468
157 -164 483 -414 726 -556 290 -170 443 -243 690 -328 367 -125 743 -187
1138 -188 361 0 811 72 1151 185 236 79 557 239 801 400 232 153 566 440 700
600 36 43 79 94 96 114 157 183 351 496 466 751 163 357 278 835 309 1282 32
448 -39 938 -206 1429 -131 382 -385 814 -690 1174 -462 544 -1167 966 -1844
1105 -350 71 -679 101 -931 83z m246 -505 c35 -33 64 -64 64 -68 0 -6 -99 -87
-127 -103 -14 -9 -153 100 -153 119 0 8 12 25 28 38 15 13 41 35 57 50 17 14
38 26 48 26 10 0 48 -28 83 -62z m-819 -308 c16 -38 33 -56 72 -80 28 -18 51
-38 51 -46 0 -8 -22 -28 -48 -46 -27 -17 -61 -49 -76 -70 -35 -49 -59 -49 -79
0 -19 46 -26 52 -99 82 -32 12 -58 26 -58 31 0 16 43 49 85 65 27 10 47 25 55
42 39 87 65 93 97 22z m1548 2 c22 -34 47 -56 94 -82 36 -19 66 -40 68 -46 2
-6 -18 -19 -44 -29 -56 -20 -97 -55 -113 -96 -17 -39 -31 -37 -70 12 -18 22
-57 56 -86 75 -30 19 -54 39 -54 44 0 5 24 28 53 52 30 24 66 60 81 81 15 20
30 37 34 36 4 0 21 -21 37 -47z m-725 -170 l0 -89 58 -12 c127 -28 245 -115
356 -261 28 -36 70 -87 94 -115 49 -55 80 -111 68 -122 -4 -5 -55 -10 -112
-11 l-104 -4 0 -279 0 -280 138 2 137 1 7 -63 c3 -35 11 -137 17 -226 6 -89
12 -167 13 -175 2 -10 -24 -14 -110 -19 -62 -3 -115 -9 -118 -12 -3 -3 4 -75
16 -159 12 -84 34 -245 50 -358 57 -405 100 -718 119 -870 11 -85 31 -236 45
-335 14 -99 28 -216 31 -260 3 -44 8 -99 11 -122 l5 -42 44 17 45 16 47 -46
c77 -74 102 -83 223 -83 95 0 110 3 163 29 32 15 77 46 100 68 46 43 51 43
112 -8 l30 -25 -60 -55 c-71 -65 -189 -128 -266 -142 -104 -20 -265 18 -333
79 l-33 28 -59 -24 c-32 -13 -95 -28 -139 -33 -96 -10 -1335 -8 -1385 2 -19 5
-61 19 -92 33 l-58 26 -52 -36 c-192 -131 -429 -95 -612 91 l-49 50 39 21 c22
12 47 27 56 33 14 10 22 6 50 -21 98 -97 217 -143 315 -121 65 15 150 57 194
97 32 29 41 33 59 23 30 -16 36 -7 39 52 1 46 61 514 106 828 8 58 26 202 40
320 14 118 40 304 56 412 16 108 38 262 49 342 10 80 21 150 24 155 3 5 -39
12 -97 16 l-102 7 3 241 c2 133 6 244 8 246 2 2 64 4 138 5 l134 1 4 270 c2
149 2 272 0 275 -2 2 -45 7 -97 10 -51 3 -97 8 -100 12 -15 15 6 76 36 104 17
16 51 60 76 99 67 102 120 162 191 212 64 46 176 92 225 93 l27 0 0 90 0 90
90 0 90 0 0 -88z m-2225 17 c7 -11 191 -103 264 -133 24 -9 87 -37 140 -61 94
-43 467 -208 646 -287 50 -22 162 -74 250 -117 88 -43 173 -81 188 -85 l28 -7
-22 -37 c-13 -20 -28 -45 -33 -54 -6 -10 -17 -18 -25 -18 -23 0 -213 75 -341
135 -63 29 -160 72 -215 95 -139 58 -612 264 -715 311 -47 22 -131 61 -187 87
l-102 47 24 23 c13 12 36 42 51 67 26 46 38 53 49 34z m4325 -66 c19 -38 36
-71 38 -75 2 -3 -21 -14 -50 -23 -29 -10 -114 -45 -188 -78 -268 -118 -702
-307 -706 -307 -6 0 -301 -138 -439 -205 -49 -24 -110 -46 -135 -49 -40 -6
-49 -3 -68 17 -28 30 -40 89 -20 104 7 5 46 20 87 32 41 13 160 65 264 117
104 53 269 131 366 174 260 115 478 211 635 279 77 33 144 65 150 71 20 20 32
9 66 -57z m258 -780 l-3 -78 -785 -3 c-432 -1 -800 0 -818 3 l-33 6 2 65 c1
35 3 65 3 66 1 1 343 5 761 8 418 3 786 7 818 8 l58 2 -3 -77z m-3198 51 c31
-13 40 -21 40 -40 0 -13 5 -24 11 -24 6 0 9 -12 7 -27 l-3 -28 -130 -7 c-71
-4 -475 -10 -897 -14 l-768 -6 0 81 0 81 850 0 c757 0 854 -2 890 -16z m1525
-144 c49 -37 85 -55 240 -118 252 -103 354 -146 460 -195 61 -27 144 -63 185
-80 41 -16 144 -61 229 -99 124 -57 251 -108 349 -143 8 -3 -2 -23 -32 -59
-24 -29 -45 -59 -48 -66 -4 -13 -46 4 -413 165 -121 53 -283 124 -360 157
-257 111 -747 327 -753 333 -2 2 7 35 19 75 l22 72 31 -6 c17 -4 49 -20 71
-36z m-1475 -22 c0 -13 9 -38 21 -57 19 -32 19 -34 2 -46 -19 -14 -174 -83
-368 -164 -66 -27 -172 -73 -235 -101 -63 -28 -167 -73 -230 -99 -63 -27 -223
-97 -355 -156 -132 -59 -261 -115 -286 -124 l-46 -18 -11 26 c-6 14 -27 45
-47 68 l-36 41 38 12 c41 13 343 143 487 209 49 23 143 64 210 92 67 29 214
91 327 140 308 132 478 197 517 198 6 1 12 -9 12 -21z m-437 -698 c16 -51 22
-57 65 -74 116 -48 124 -76 26 -97 -71 -15 -76 -19 -96 -89 -11 -37 -18 -46
-40 -48 -28 -3 -30 0 -52 98 -4 21 -14 27 -58 38 -57 13 -85 37 -67 58 5 6 34
22 63 34 49 19 76 48 76 80 0 5 5 21 10 35 7 20 16 26 33 23 17 -2 26 -15 40
-58z m2371 33 c2 -10 7 -32 11 -49 8 -40 31 -61 91 -83 36 -12 50 -23 52 -38
3 -22 -3 -25 -99 -47 -27 -6 -39 -28 -39 -73 0 -28 -26 -53 -55 -53 -20 0 -25
6 -30 38 -11 68 -19 77 -84 97 -105 32 -104 53 4 98 61 25 66 32 80 100 4 22
11 27 35 27 19 0 30 -6 34 -17z m790 -1207 c32 -13 86 -72 86 -93 0 -5 25 -8
58 -6 31 1 315 4 629 6 l573 4 -5 -21 c-3 -12 -9 -40 -13 -64 l-7 -43 -90 -3
c-49 -2 -325 -4 -612 -5 l-523 -1 -14 -33 c-18 -43 -71 -76 -134 -84 -103 -12
-202 74 -202 174 0 123 141 216 254 169z m-3906 -10 c116 -61 137 -212 43
-300 -25 -24 -42 -30 -91 -34 -76 -6 -110 8 -161 67 l-41 46 -626 5 -627 5 -6
47 c-4 25 -10 55 -13 65 -6 19 7 19 638 15 l645 -5 27 32 c53 64 150 90 212
57z m-773 -396 c134 -11 153 -20 138 -67 -15 -45 -59 -50 -453 -54 l-353 -4
-17 68 -17 67 291 0 c160 0 345 -5 411 -10z m5985 0 c0 -5 -8 -34 -17 -65
l-17 -55 -106 0 c-544 -3 -714 5 -732 33 -4 7 -8 24 -8 39 0 34 16 39 140 48
153 11 740 11 740 0z m-1453 -135 c51 -15 104 -62 117 -103 6 -18 20 -20 179
-26 94 -4 235 -11 312 -16 77 -5 281 -12 453 -16 171 -4 312 -10 312 -13 0
-14 -37 -102 -48 -113 -12 -12 -20 -12 -887 22 -137 5 -266 12 -286 14 -32 3
-38 0 -54 -30 -41 -77 -174 -98 -250 -40 -46 36 -73 79 -81 133 -12 81 54 171
142 192 21 5 39 9 40 10 0 1 23 -6 51 -14z m-3614 -9 c43 -17 93 -76 108 -125
21 -72 -11 -152 -80 -198 -25 -17 -48 -23 -88 -23 -67 0 -114 21 -153 68 l-28
35 -424 -17 c-233 -8 -517 -19 -633 -22 l-210 -6 -16 48 c-9 27 -19 56 -23 65
-6 14 22 17 281 22 285 6 762 23 940 33 l92 6 18 36 c13 26 34 45 72 64 59 31
96 35 144 14z m126 -633 c86 -81 232 -222 324 -315 l168 -168 1129 0 1128 0
133 128 c73 70 218 211 322 315 l190 187 688 0 c379 0 689 -2 689 -5 0 -3 -13
-32 -29 -64 -30 -58 -30 -58 -83 -64 -29 -4 -318 -7 -642 -7 l-589 0 -127
-127 c-69 -71 -212 -210 -317 -311 l-192 -182 -1179 -3 -1179 -2 -27 37 c-15
21 -125 129 -244 241 -119 112 -251 240 -292 283 -69 72 -78 79 -105 73 -17
-4 -307 -7 -645 -8 l-615 -1 -32 70 -31 70 700 0 701 0 156 -147z m-123 -301
c77 -76 223 -219 325 -319 l186 -183 1228 0 1229 0 256 253 c140 139 287 284
326 320 l71 67 561 0 c341 0 562 -4 562 -9 0 -8 -24 -50 -66 -119 -2 -2 -233
-6 -515 -8 l-512 -4 -301 -298 c-166 -164 -312 -306 -326 -315 -23 -15 -137
-16 -1288 -18 l-1262 -1 -93 85 c-50 47 -200 191 -332 321 l-240 235 -507 -6
c-326 -4 -508 -3 -508 3 0 6 -16 36 -35 68 -19 32 -35 60 -35 62 0 3 256 4
569 3 l569 -1 138 -136z m2920 115 c11 -11 -25 -76 -51 -92 -11 -7 -40 -16
-66 -19 -25 -4 -526 -7 -1115 -8 l-1069 -1 -7 39 c-14 81 -14 83 45 87 102 7
2255 2 2263 -6z m-2847 -607 l333 -330 1340 0 1340 0 111 118 c198 209 410
422 478 478 l66 56 404 -2 c222 0 405 -3 407 -5 2 -2 -17 -33 -43 -70 l-48
-66 -350 2 -351 2 -160 -165 c-89 -90 -226 -235 -306 -320 l-145 -157 -1408 0
-1407 -1 -23 27 c-44 54 -225 242 -418 433 l-196 196 -194 -7 c-268 -10 -519
-10 -519 -1 0 4 -20 34 -45 67 l-45 60 412 5 c227 3 418 6 424 8 6 1 160 -146
343 -328z m-361 43 c74 -55 94 -148 49 -234 -35 -65 -76 -89 -153 -89 -56 0
-67 3 -98 31 -19 17 -43 49 -53 71 l-18 41 -102 -6 c-57 -2 -103 -2 -103 2 0
4 -23 33 -51 64 -28 32 -48 61 -45 65 4 3 77 5 163 3 l155 -3 28 27 c58 56
172 70 228 28z m4232 12 c16 -8 38 -28 49 -44 l21 -29 153 5 152 6 -38 -42
c-21 -23 -43 -52 -48 -65 -9 -19 -21 -24 -71 -30 -34 -3 -75 -6 -92 -6 -25 0
-35 -7 -51 -37 -11 -21 -39 -51 -63 -67 -113 -80 -272 7 -272 149 0 61 23 103
81 145 34 25 52 30 96 30 30 0 67 -7 83 -15z m-375 -695 c16 -1 14 -4 -10 -17
-16 -8 -52 -36 -78 -62 l-48 -46 -1699 0 -1699 0 -38 37 c-21 20 -55 47 -76
61 -28 19 -33 26 -20 29 13 2 3597 1 3668 -2z m-2455 -309 c168 -3 640 -3
1050 0 410 3 767 3 793 0 l48 -6 -102 -44 c-124 -54 -186 -69 -304 -76 -163
-9 -1487 -14 -1655 -5 -129 6 -178 13 -225 29 -33 12 -85 30 -115 40 -80 26
-142 60 -134 73 5 8 55 9 173 3 91 -4 303 -10 471 -14z"/>
<path d="M5085 7441 c-59 -15 -121 -55 -178 -114 -102 -106 -130 -97 278 -97
195 0 355 2 355 5 0 22 -39 71 -87 111 -88 71 -151 97 -253 100 -47 2 -98 0
-115 -5z"/>
<path d="M5382 7063 l-84 -4 28 -37 c15 -20 31 -39 34 -42 4 -3 17 -32 29 -65
13 -33 27 -68 32 -77 17 -34 -44 -179 -86 -202 -64 -35 -74 -47 -73 -81 l1
-35 109 0 108 0 0 275 c0 151 -3 274 -7 273 -5 -1 -46 -4 -91 -5z"/>
<path d="M4911 6788 l0 -273 105 3 104 3 0 40 c0 21 -5 39 -10 39 -20 0 -71
62 -99 119 -30 63 -46 121 -32 121 5 0 15 22 22 50 10 38 26 63 66 104 29 30
53 57 53 60 0 3 -47 6 -104 6 l-104 0 -1 -272z"/>
<path d="M5013 6353 l-383 -3 0 -84 0 -83 571 0 571 -1 -6 46 c-3 24 -6 64 -6
88 l0 44 -182 -2 c-101 -2 -355 -4 -565 -5z"/>
<path d="M4838 6012 c-16 -2 -28 -8 -28 -14 0 -32 -53 -455 -66 -523 -8 -44
-30 -201 -49 -350 -78 -610 -106 -821 -135 -1030 -16 -121 -30 -232 -30 -247
l0 -28 83 0 c45 0 146 3 225 7 l142 6 0 227 0 228 33 48 c43 65 100 94 182 94
55 0 69 -4 111 -33 82 -57 98 -100 106 -292 3 -88 7 -186 7 -217 l1 -58 213 0
213 0 -27 223 c-15 122 -36 287 -48 367 -11 80 -30 222 -41 315 -32 260 -142
1046 -172 1223 l-10 64 -342 -4 c-187 -1 -353 -4 -368 -6z m439 -231 c69 -50
88 -134 48 -212 -19 -35 -72 -59 -133 -59 -98 0 -128 24 -152 122 -14 53 -2
85 47 129 64 60 126 66 190 20z m-11 -690 c94 -57 103 -210 14 -256 -34 -18
-123 -20 -169 -4 -40 14 -71 72 -71 133 0 105 136 182 226 127z"/>
<path d="M7091 4754 c-44 -56 -16 -124 50 -124 32 0 69 41 69 75 0 35 -37 75
-70 75 -19 0 -36 -9 -49 -26z"/>
<path d="M3217 4763 c-19 -5 -47 -52 -47 -78 0 -21 48 -65 70 -65 10 0 29 9
44 21 36 28 36 80 0 108 -27 21 -34 23 -67 14z"/>
<path d="M6972 4207 c-45 -48 -16 -127 46 -127 36 0 72 37 72 74 0 33 -41 76
-73 76 -13 0 -33 -10 -45 -23z"/>
<path d="M3342 4213 c-19 -17 -26 -42 -23 -85 1 -23 66 -61 91 -53 22 7 50 53
50 83 0 58 -75 92 -118 55z"/>
<path d="M3017 2832 c-25 -27 -22 -78 5 -96 49 -34 118 -5 118 49 0 56 -86 88
-123 47z"/>
<path d="M7284 2849 c-30 -15 -46 -53 -34 -83 10 -28 47 -56 73 -56 26 0 67
45 67 73 0 51 -61 88 -106 66z"/>
<path d="M1945 8170 c-40 -41 -38 -84 3 -122 43 -38 84 -37 123 1 31 31 36 59
18 94 -32 62 -98 75 -144 27z"/>
<path d="M8289 8161 c-36 -36 -37 -70 -3 -110 35 -42 84 -43 125 -2 37 38 39
82 4 116 -35 36 -88 34 -126 -4z"/>
<path d="M1349 7414 c-35 -37 -33 -98 4 -130 90 -77 202 43 118 127 -39 38
-88 40 -122 3z"/>
<path d="M8874 7407 c-34 -29 -36 -89 -4 -121 30 -31 87 -27 116 8 26 30 30
53 13 89 -22 49 -83 60 -125 24z"/>
<path d="M1010 6803 c-11 -14 -19 -31 -17 -37 7 -20 53 -47 70 -40 39 15 29
104 -12 104 -11 0 -29 -12 -41 -27z"/>
<path d="M9323 6800 c-27 -11 -29 -32 -7 -54 19 -19 35 -20 56 -3 50 40 14 82
-49 57z"/>
<path d="M1045 3505 c-31 -30 -31 -46 -2 -73 31 -29 61 -28 81 3 21 32 20 47
-4 73 -27 28 -45 28 -75 -3z"/>
<path d="M9300 3517 c-13 -7 -29 -25 -35 -41 -8 -24 -6 -31 14 -47 49 -40 111
-13 111 49 0 47 -40 64 -90 39z"/>
<path d="M1362 2820 c-51 -48 -5 -150 68 -150 40 0 80 41 80 82 0 70 -98 114
-148 68z"/>
<path d="M8856 2815 c-56 -52 -19 -145 59 -145 83 0 118 117 45 155 -42 21
-73 19 -104 -10z"/>
<path d="M1947 2070 c-30 -24 -40 -60 -27 -96 15 -38 38 -53 82 -54 74 0 115
94 63 145 -30 31 -82 33 -118 5z"/>
<path d="M8311 2089 c-69 -27 -66 -111 6 -148 34 -17 62 -13 88 14 35 34 33
78 -4 116 -31 30 -50 34 -90 18z"/>
<path d="M7591 1434 c-42 -35 -40 -67 4 -111 31 -31 40 -35 68 -29 65 13 90
94 42 141 -32 33 -75 32 -114 -1z"/>
<path d="M2655 1425 c-34 -33 -34 -87 0 -121 20 -20 33 -25 67 -22 49 4 81 39
81 89 0 70 -97 106 -148 54z"/>
<path d="M1835 1322 c-19 -13 -14 -40 7 -34 13 3 16 8 8 17 -5 6 -7 15 -3 18
9 9 0 9 -12 -1z"/>
<path d="M1858 1273 c7 -3 16 -2 19 1 4 3 -2 6 -13 5 -11 0 -14 -3 -6 -6z"/>
</g>
</svg>
